<svg width="16" height="16" viewBox="0 0 16 16" fill="none" xmlns="http://www.w3.org/2000/svg">
<path d="M13.3222 13.3256C16.2634 10.3844 16.2634 5.61732 13.3222 2.67612C10.381 -0.265085 5.61865 -0.265085 2.67758 2.67612C-0.26362 5.62198 -0.26362 10.3844 2.67758 13.3256C5.61398 16.262 10.3812 16.2668 13.3222 13.3256ZM4.37171 8.15852C4.55521 7.97497 4.85641 7.97497 5.03994 8.15852L6.57407 9.68798L10.9599 5.31158C11.1482 5.13278 11.4446 5.13278 11.6282 5.31627C11.8117 5.49982 11.8117 5.79627 11.6282 5.97982L6.90337 10.6857C6.81399 10.7798 6.69165 10.8221 6.57399 10.8221C6.45165 10.8221 6.33399 10.7798 6.23987 10.6857L4.37161 8.82688C4.18806 8.64334 4.18806 8.34219 4.37161 8.15866L4.37171 8.15852Z" fill="#55C8A2"/>
</svg>
