<svg width="75" height="75" viewBox="0 0 75 75" fill="none" xmlns="http://www.w3.org/2000/svg">
<circle cx="37.5" cy="37.5" r="37.5" fill="#CCE7FF"/>
<path d="M23.8816 14C21.5845 14 19.7089 15.8255 19.7089 18.0866V57.8928C19.7089 60.1539 21.5845 62 23.8816 62H53.617C55.9141 62 57.7684 60.1539 57.7684 57.8928V18.0866C57.7684 15.8255 55.9141 14.0003 53.617 14.0003L23.8816 14ZM23.8816 15.1617H53.617C55.2608 15.1617 56.5885 16.4686 56.5885 18.0866V57.8928C56.5885 59.5313 55.2608 60.8383 53.617 60.8383H23.8816C22.2169 60.8383 20.8892 59.5313 20.8892 57.8928V18.0866C20.8892 16.4686 22.2169 15.1617 23.8816 15.1617ZM38.3593 18.8125C37.1582 19.7875 35.9989 20.7625 34.7978 21.7374C34.5448 21.9242 34.4818 22.339 34.6924 22.588C34.903 22.8162 35.3244 22.8576 35.5565 22.6295L36.3574 21.9656V25.1186H37.5585V21.0114L38.7596 20.0158L39.9398 20.9908V25.1186H41.12V21.9449L41.9417 22.6294C42.1735 22.8575 42.595 22.8161 42.8058 22.5879C43.0164 22.3389 42.9534 21.924 42.7004 21.7373L39.1389 18.8124C38.7807 18.5634 38.6962 18.7086 38.3593 18.8124L38.3593 18.8125ZM29.8243 28.0433V29.2255H52.4152V28.0433H29.8243ZM25.0616 32.7311V33.8928H52.4155V32.7311H25.0616ZM25.0616 37.419V38.5807H52.4155V37.419H25.0616ZM25.0616 42.0863V43.2686H52.4155V42.0863H25.0616ZM25.0616 46.7742V47.9564H52.4155V46.7742H25.0616ZM25.0616 54.9676V56.1499H36.947V54.9676H25.0616ZM40.5302 54.9676V56.1499H52.4155V54.9676H40.5302Z" fill="#015AAB"/>
</svg>
