<svg width="75" height="75" viewBox="0 0 75 75" fill="none" xmlns="http://www.w3.org/2000/svg">
<circle cx="37.5" cy="37.5" r="37.5" fill="#FFBDBD"/>
<path d="M28.8913 53.7571C28.11 55.4069 27.7119 57.177 27.7119 59.0146C27.7119 59.4497 28.065 59.8022 28.5008 59.8022C28.9365 59.8022 29.2896 59.4497 29.2896 59.0146C29.2896 57.4172 29.6351 55.8721 30.3188 54.4246C31.115 52.6994 32.377 51.1994 33.9695 50.0821C34.7808 49.4971 35.6745 49.0545 36.6135 48.7246C37.7026 49.3096 38.9345 49.6697 40.2566 49.6697C41.5788 49.6697 42.8031 49.3096 43.8998 48.7246C44.8387 49.0547 45.7327 49.5046 46.5513 50.0896C48.1363 51.2146 49.3983 52.7146 50.1945 54.4398C50.8782 55.8797 51.2236 57.4249 51.2236 59.0223C51.2236 59.4573 51.5767 59.8099 52.0125 59.8099C52.4482 59.8099 52.8014 59.4573 52.8014 59.0223C52.8014 57.1849 52.4033 55.4148 51.622 53.7723C50.7131 51.8072 49.2709 50.0823 47.4605 48.8072C46.8221 48.3497 46.1384 47.9823 45.4325 47.6598C47.0174 46.2347 48.0391 44.1947 48.0391 41.8998C48.0391 37.6173 44.5461 34.1298 40.257 34.1298C35.9677 34.1298 32.4748 37.6173 32.4748 41.8998C32.4748 44.1947 33.4888 46.2347 35.0814 47.6598C34.3753 47.9823 33.6918 48.3497 33.0534 48.7996C31.2349 50.0745 29.8002 51.7921 28.8914 53.7571L28.8913 53.7571ZM34.0517 41.8996C34.0517 38.4869 36.8309 35.7045 40.2564 35.7045C43.6817 35.7045 46.4612 38.487 46.4612 41.8996C46.4612 45.3121 43.682 48.0946 40.2564 48.0946C36.8385 48.0871 34.0517 45.3119 34.0517 41.8996Z" fill="#C01022"/>
<path d="M10.9983 54.2296C11.4341 54.2296 11.7872 53.8771 11.7872 53.442C11.7872 51.837 12.1327 50.2921 12.8238 48.8519C13.6199 47.1344 14.8746 45.6268 16.4669 44.5094C17.2855 43.9245 18.1795 43.4819 19.1109 43.152C20.2 43.737 21.4319 44.0971 22.754 44.0971C24.0761 44.0971 25.3005 43.737 26.3971 43.152C27.0882 43.392 27.7643 43.6996 28.4179 44.0971C28.6357 44.2245 28.8311 44.3671 29.0487 44.5246C30.2356 45.3571 31.2272 46.3847 31.9933 47.5995C32.1434 47.8395 32.3989 47.9669 32.6618 47.9669C32.8046 47.9669 32.9547 47.9293 33.0824 47.8468C33.4504 47.6144 33.5631 47.1268 33.3303 46.7594C32.4515 45.372 31.3172 44.1869 29.9501 43.2346C29.7173 43.0695 29.4842 42.9045 29.2366 42.7546C28.8233 42.4997 28.3952 42.2746 27.9597 42.0719C29.5371 40.6469 30.5438 38.6144 30.5438 36.3268C30.5438 32.0443 27.0508 28.5568 22.7616 28.5568C18.4724 28.5573 14.972 32.0297 14.972 36.3199C14.972 38.6149 15.986 40.6549 17.5786 42.0799C16.8724 42.4025 16.189 42.7699 15.5506 43.2198C13.7401 44.5023 12.2979 46.2198 11.3891 48.1849C10.6078 49.8348 10.2097 51.6048 10.2097 53.4424C10.2097 53.8773 10.5628 54.2298 10.9986 54.2298L10.9983 54.2296ZM16.5568 36.3196C16.5568 32.907 19.3361 30.1246 22.7616 30.1246C26.1869 30.1246 28.9663 32.8994 28.9663 36.3196C28.9663 39.7323 26.1871 42.5147 22.7616 42.5147C19.3363 42.5147 16.5568 39.732 16.5568 36.3196Z" fill="#C01022"/>
<path d="M51.2689 42.7321C51.0285 42.882 50.7957 43.0397 50.5402 43.2272C49.2107 44.1647 48.0539 45.3722 47.1824 46.7296C46.9496 47.0971 47.0547 47.5846 47.4227 47.817C47.5504 47.8995 47.7008 47.9445 47.8509 47.9445C48.1137 47.9445 48.3617 47.817 48.5194 47.5843C49.2782 46.3993 50.2922 45.3419 51.4941 44.4943C51.6894 44.3593 51.8772 44.2167 52.0951 44.0892C52.7411 43.6918 53.4246 43.3842 54.1158 43.1442C55.2049 43.7292 56.4368 44.0892 57.759 44.0892C59.0811 44.0892 60.313 43.7291 61.4021 43.1442C62.3411 43.4743 63.235 43.9242 64.0537 44.5092C65.6387 45.6342 66.9006 47.1342 67.6968 48.8593C68.3805 50.2992 68.726 51.8444 68.726 53.4494C68.726 53.8844 69.0791 54.237 69.5148 54.237C69.9506 54.237 70.3037 53.8845 70.3037 53.4494C70.3037 51.612 69.9056 49.8419 69.1243 48.1918C68.2154 46.2268 66.7732 44.5019 64.9628 43.2267C64.3244 42.7692 63.6407 42.4018 62.9348 42.0793C64.5198 40.6543 65.5414 38.6143 65.5414 36.3193C65.5414 32.0368 62.0484 28.5493 57.7593 28.5493C53.4701 28.5493 49.9771 32.0369 49.9771 36.3193C49.9771 38.5993 50.9836 40.6318 52.5536 42.0569C52.1101 42.2522 51.6895 42.4849 51.2689 42.7322L51.2689 42.7321ZM51.5467 36.3196C51.5467 32.907 54.3259 30.1245 57.7514 30.1245C61.1767 30.1245 63.9562 32.8994 63.9562 36.3196C63.9562 39.7322 61.1769 42.5146 57.7514 42.5146C54.3261 42.5146 51.5467 39.732 51.5467 36.3196Z" fill="#C01022"/>
<path d="M31.7757 34.6096C31.9936 34.6096 32.2039 34.5195 32.3616 34.3547C32.8198 33.8523 33.3532 33.3872 33.9615 32.9673C34.7729 32.3823 35.6742 31.9397 36.6131 31.6023C37.7022 32.1872 38.9341 32.5473 40.2563 32.5473C41.5784 32.5473 42.8027 32.1872 43.8918 31.6023C44.8308 31.9324 45.7247 32.3823 46.5434 32.9673C47.1293 33.3799 47.6777 33.8447 48.1585 34.3623C48.3162 34.5273 48.5265 34.6098 48.7368 34.6098C48.9321 34.6098 49.1273 34.5425 49.2777 34.3923C49.5931 34.0923 49.6082 33.5974 49.3153 33.2749C48.7519 32.6823 48.1284 32.1423 47.4599 31.6774C46.8214 31.2199 46.1377 30.8525 45.4318 30.53C47.0168 29.1049 48.0384 27.0649 48.0384 24.77C48.0384 20.4875 44.5454 17 40.2563 17C35.9671 17 32.4741 20.4876 32.4741 24.77C32.4741 27.0649 33.4881 29.1049 35.0732 30.53C34.367 30.8525 33.676 31.2199 33.0451 31.6699C32.3541 32.1574 31.7306 32.6974 31.1897 33.2824C30.8967 33.6049 30.9192 34.0998 31.2423 34.3999C31.4002 34.542 31.588 34.6096 31.7758 34.6096L31.7757 34.6096ZM34.0517 24.7696C34.0517 21.357 36.8309 18.5745 40.2565 18.5745C43.6818 18.5745 46.4612 21.3494 46.4612 24.7696C46.4612 28.1822 43.682 30.9647 40.2565 30.9647C36.8385 30.9647 34.0517 28.1895 34.0517 24.7696Z" fill="#C01022"/>
</svg>
