<svg width="75" height="75" viewBox="0 0 75 75" fill="none" xmlns="http://www.w3.org/2000/svg">
<circle cx="37.5" cy="37.5" r="37.5" fill="#FFBDBD"/>
<path d="M26.6815 53.7571C25.9003 55.4069 25.5022 57.177 25.5022 59.0146C25.5022 59.4497 25.8553 59.8022 26.2911 59.8022C26.7268 59.8022 27.0799 59.4497 27.0799 59.0146C27.0799 57.4172 27.4254 55.8721 28.1091 54.4246C28.9053 52.6994 30.1672 51.1994 31.7598 50.0821C32.5711 49.4971 33.4648 49.0545 34.4038 48.7246C35.4929 49.3096 36.7248 49.6697 38.0469 49.6697C39.369 49.6697 40.5934 49.3096 41.69 48.7246C42.629 49.0547 43.523 49.5046 44.3416 50.0896C45.9266 51.2146 47.1886 52.7146 47.9848 54.4398C48.6684 55.8797 49.0139 57.4249 49.0139 59.0223C49.0139 59.4573 49.367 59.8099 49.8028 59.8099C50.2385 59.8099 50.5916 59.4573 50.5916 59.0223C50.5916 57.1849 50.1936 55.4148 49.4123 53.7723C48.5034 51.8072 47.0612 50.0823 45.2508 48.8072C44.6124 48.3497 43.9287 47.9823 43.2228 47.6598C44.8077 46.2347 45.8294 44.1947 45.8294 41.8998C45.8294 37.6173 42.3364 34.1298 38.0472 34.1298C33.758 34.1298 30.2651 37.6173 30.2651 41.8998C30.2651 44.1947 31.2791 46.2347 32.8717 47.6598C32.1655 47.9823 31.4821 48.3497 30.8437 48.7996C29.0251 50.0745 27.5905 51.7921 26.6817 53.7571L26.6815 53.7571ZM31.842 41.8996C31.842 38.4869 34.6212 35.7045 38.0467 35.7045C41.472 35.7045 44.2515 38.487 44.2515 41.8996C44.2515 45.3121 41.4723 48.0946 38.0467 48.0946C34.6288 48.0871 31.842 45.3119 31.842 41.8996V41.8996Z" fill="#C01022"/>
<path d="M8.78863 54.2296C9.22436 54.2296 9.57748 53.8771 9.57748 53.442C9.57748 51.837 9.92299 50.2921 10.614 48.8519C11.4102 47.1344 12.6649 45.6268 14.2572 44.5094C15.0758 43.9245 15.9698 43.4819 16.9012 43.152C17.9902 43.737 19.2222 44.0971 20.5443 44.0971C21.8664 44.0971 23.0908 43.737 24.1874 43.152C24.8784 43.392 25.5546 43.6996 26.2082 44.0971C26.426 44.2245 26.6214 44.3671 26.839 44.5246C28.0259 45.3571 29.0175 46.3847 29.7835 47.5995C29.9337 47.8395 30.1892 47.9669 30.4521 47.9669C30.5949 47.9669 30.745 47.9293 30.8727 47.8468C31.2407 47.6144 31.3534 47.1268 31.1206 46.7594C30.2418 45.372 29.1075 44.1869 27.7403 43.2346C27.5075 43.0695 27.2745 42.9045 27.0268 42.7546C26.6136 42.4997 26.1855 42.2746 25.75 42.0719C27.3274 40.6469 28.3341 38.6144 28.3341 36.3268C28.3341 32.0443 24.8411 28.5568 20.5519 28.5568C16.2627 28.5573 12.7623 32.0297 12.7623 36.3199C12.7623 38.6149 13.7763 40.6549 15.3689 42.0799C14.6627 42.4025 13.9793 42.7699 13.3408 43.2198C11.5304 44.5023 10.0882 46.2198 9.17934 48.1849C8.39812 49.8348 8 51.6048 8 53.4424C8 53.8773 8.35309 54.2298 8.78886 54.2298L8.78863 54.2296ZM14.3471 36.3196C14.3471 32.907 17.1263 30.1246 20.5519 30.1246C23.9772 30.1246 26.7566 32.8994 26.7566 36.3196C26.7566 39.7323 23.9774 42.5147 20.5519 42.5147C17.1266 42.5147 14.3471 39.732 14.3471 36.3196Z" fill="#C01022"/>
<path d="M49.0592 42.7321C48.8188 42.882 48.586 43.0397 48.3305 43.2272C47.001 44.1647 45.8441 45.3722 44.9726 46.7296C44.7399 47.0971 44.845 47.5846 45.213 47.817C45.3407 47.8995 45.491 47.9444 45.6412 47.9444C45.904 47.9444 46.152 47.817 46.3097 47.5843C47.0685 46.3993 48.0825 45.3419 49.2844 44.4943C49.4797 44.3593 49.6675 44.2167 49.8854 44.0892C50.5314 43.6918 51.2149 43.3842 51.9061 43.1442C52.9952 43.7292 54.2271 44.0892 55.5492 44.0892C56.8714 44.0892 58.1033 43.7291 59.1924 43.1442C60.1313 43.4743 61.0253 43.9242 61.844 44.5092C63.4289 45.6342 64.6909 47.1342 65.4871 48.8593C66.1708 50.2993 66.5163 51.8444 66.5163 53.4494C66.5163 53.8844 66.8693 54.237 67.3051 54.237C67.7408 54.237 68.094 53.8845 68.094 53.4494C68.094 51.612 67.6959 49.8419 66.9146 48.1918C66.0057 46.2268 64.5635 44.5019 62.7531 43.2267C62.1147 42.7692 61.431 42.4018 60.7251 42.0793C62.3101 40.6542 63.3317 38.6143 63.3317 36.3193C63.3317 32.0368 59.8387 28.5493 55.5496 28.5493C51.2604 28.5493 47.7674 32.0369 47.7674 36.3193C47.7674 38.5993 48.7739 40.6318 50.3439 42.0569C49.9004 42.2522 49.4798 42.4849 49.0592 42.7322L49.0592 42.7321ZM49.3369 36.3196C49.3369 32.907 52.1162 30.1245 55.5417 30.1245C58.967 30.1245 61.7464 32.8994 61.7464 36.3196C61.7464 39.7322 58.9672 42.5146 55.5417 42.5146C52.1164 42.5146 49.3369 39.732 49.3369 36.3196Z" fill="#C01022"/>
<path d="M29.566 34.6096C29.7839 34.6096 29.9942 34.5195 30.1519 34.3547C30.6101 33.8523 31.1434 33.3872 31.7518 32.9673C32.5632 32.3823 33.4644 31.9397 34.4034 31.6023C35.4925 32.1872 36.7244 32.5473 38.0465 32.5473C39.3687 32.5473 40.593 32.1872 41.6821 31.6023C42.6211 31.9324 43.515 32.3823 44.3337 32.9673C44.9196 33.3799 45.468 33.8447 45.9488 34.3623C46.1065 34.5273 46.3168 34.6098 46.5271 34.6098C46.7224 34.6098 46.9176 34.5425 47.0679 34.3923C47.3834 34.0923 47.3985 33.5974 47.1056 33.2749C46.5422 32.6823 45.9187 32.1423 45.2501 31.6774C44.6117 31.2199 43.928 30.8525 43.2221 30.53C44.8071 29.1049 45.8287 27.0649 45.8287 24.77C45.8287 20.4875 42.3357 17 38.0466 17C33.7574 17 30.2644 20.4876 30.2644 24.77C30.2644 27.0649 31.2784 29.1049 32.8635 30.53C32.1573 30.8525 31.4663 31.2199 30.8354 31.6699C30.1444 32.1574 29.5209 32.6974 28.98 33.2824C28.687 33.6049 28.7095 34.0998 29.0325 34.3999C29.1905 34.542 29.3783 34.6096 29.5661 34.6096L29.566 34.6096ZM31.842 24.7696C31.842 21.357 34.6212 18.5745 38.0468 18.5745C41.4721 18.5745 44.2515 21.3494 44.2515 24.7696C44.2515 28.1822 41.4723 30.9647 38.0468 30.9647C34.6288 30.9647 31.842 28.1895 31.842 24.7696V24.7696Z" fill="#C01022"/>
</svg>
