<svg width="52" height="39" viewBox="0 0 52 39" fill="none" xmlns="http://www.w3.org/2000/svg">
<path d="M40.1794 0.00949134C42.1436 0.0896658 44.0651 0.689476 45.8559 1.79113C48.7183 3.55197 50.6815 6.22791 51.5419 9.53983C52.4288 12.9544 52.0314 16.2976 50.3196 19.1585C50.3154 19.1662 50.3111 19.1739 50.3069 19.1814C48.5757 21.978 45.8445 23.8917 42.4116 24.8406C41.7513 25.0231 40.8861 24.9496 40.1321 25.0109C40.5212 26.3941 40.9082 27.6404 42.256 29.3208C43.8416 31.2981 47.799 34.6299 47.799 34.6299C48.1105 34.8905 48.3176 35.2609 48.3804 35.6697C48.4432 36.0784 48.3574 36.4967 48.1391 36.844C47.921 37.1914 47.5861 37.4433 47.1989 37.5512L42.3512 38.8874C41.9623 38.9959 41.5481 38.9515 41.1892 38.7629C41.1892 38.7629 38.1555 37.1703 34.9605 33.9878C31.638 30.6787 29.2892 25.8621 28.0365 21.0382C26.7668 16.15 26.8086 11.7142 28.3476 7.90536C29.8844 4.10246 32.7861 1.48738 36.6178 0.428523C37.8072 0.0997949 39.0013 -0.038885 40.1799 0.00931804L40.1794 0.00949134ZM13.0389 0.00949134C15.0067 0.0896658 16.934 0.689476 18.7249 1.79113C21.5874 3.55197 23.554 6.22791 24.4139 9.53983C25.3008 12.9544 24.8907 16.2976 23.1789 19.1585C23.1749 19.1662 23.1706 19.1739 23.1662 19.1814C21.435 21.978 18.7039 23.8917 15.2709 24.8406C14.6125 25.0226 13.7527 24.9494 13.0011 25.0109C13.3907 26.3925 13.7783 27.6419 15.125 29.3208C16.7106 31.2981 20.6584 34.6299 20.6584 34.6299C20.97 34.8905 21.1771 35.2609 21.2399 35.6697C21.3027 36.0784 21.2168 36.4967 20.9988 36.844C20.7805 37.1914 20.4456 37.4433 20.0584 37.5512L15.2107 38.8874C14.8248 38.9933 14.4146 38.9491 14.0583 38.7629C14.0583 38.7629 11.0247 37.1703 7.82961 33.9878C4.50729 30.6787 2.1488 25.8621 0.89613 21.0382C-0.373581 16.15 -0.319046 11.7142 1.22004 7.90536C2.7564 4.10246 5.64296 1.48738 9.47424 0.428523C10.6635 0.0997949 11.8586 -0.038885 13.0394 0.00931804L13.0389 0.00949134Z" fill="#CCE7FF"/>
</svg>
