<svg width="75" height="75" viewBox="0 0 75 75" fill="none" xmlns="http://www.w3.org/2000/svg">
<circle cx="37.5" cy="37.5" r="37.5" fill="#C5F7E1"/>
<path d="M56.5033 42.9729C56.5033 43.6957 55.8797 44.2818 55.1106 44.2818C54.3416 44.2818 53.718 43.6957 53.718 42.9729C53.718 42.2501 54.3416 41.6639 55.1106 41.6639C55.8797 41.6639 56.5033 42.2501 56.5033 42.9729Z" fill="#189276"/>
<path d="M64.2684 41.6288H62.1578C62.1144 41.6288 62.0959 41.5823 62.0897 41.5707C60.8023 38.4874 58.1656 35.7531 54.4207 33.6821C54.3638 33.4001 54.3348 33.1138 54.334 32.8269C54.3427 31.4189 55.0471 30.0946 56.2404 29.2433C56.4297 29.1113 56.5771 28.9331 56.6667 28.7281C56.756 28.523 56.7841 28.2989 56.7479 28.0798C56.7154 27.8598 56.6216 27.652 56.476 27.4773C56.3303 27.3024 56.1379 27.1672 55.9185 27.085C55.2174 26.8227 54.4696 26.6885 53.7151 26.6894C52.3466 26.6938 51.0197 27.1321 49.9491 27.9334C48.8788 28.7348 48.1273 29.8523 47.8165 31.1049C47.7948 31.1144 47.7701 31.1144 47.7484 31.1049C45.0705 30.4393 42.3111 30.1069 39.5412 30.1159C26.9146 30.1159 16.5965 36.8587 16.139 45.2415C15.3715 45.2125 13.9727 45.0379 13.23 44.1478C12.5677 43.3857 12.5367 42.1641 13.0938 40.5351C13.1996 40.2299 13.0222 39.902 12.6977 39.8021C12.3729 39.7027 12.024 39.8694 11.9178 40.1745C11.2122 42.199 11.2988 43.7872 12.2644 44.8927C13.3352 46.1668 15.1673 46.3936 16.139 46.4227C16.3618 50.5648 18.9305 54.3928 23.4302 57.255C23.4656 57.273 23.4815 57.3126 23.4674 57.3481L22.149 60.0241C21.8602 60.6059 21.8314 61.2722 22.0685 61.8741C22.2989 62.4764 22.779 62.9655 23.3993 63.2296L25.1756 64.0033C25.7931 64.2735 26.4992 64.3028 27.1396 64.0848C27.7799 63.8666 28.3023 63.419 28.5922 62.8398L29.8673 60.2278C29.8754 60.2107 29.8905 60.1974 29.909 60.1909C29.9276 60.1843 29.9483 60.185 29.9663 60.1929C33.0626 61.1062 36.29 61.5654 39.5352 61.5542C42.9822 61.5716 46.408 61.0506 49.6736 60.0125L51.5304 63.0318C51.8697 63.5834 52.4287 63.9853 53.084 64.1488C53.3016 64.2064 53.5263 64.2357 53.7524 64.236C54.2025 64.2353 54.6445 64.123 55.0337 63.9103L56.7296 62.9853C57.322 62.6682 57.7528 62.1394 57.9242 61.5193C58.1029 60.901 58.0116 60.2414 57.6704 59.6867L56.0549 57.063C56.0279 57.0327 56.0279 56.9887 56.0549 56.9583C58.81 55.212 60.9394 52.7239 62.1642 49.8199C62.176 49.7905 62.205 49.7701 62.2385 49.7676H64.2377C64.9272 49.7676 65.5883 49.5102 66.0759 49.052C66.5634 48.5937 66.8372 47.9723 66.8372 47.3242V44.0664C66.8357 43.4245 66.5653 42.8087 66.0846 42.3526C65.604 41.8965 64.9516 41.6365 64.2686 41.6288L64.2684 41.6288ZM65.6301 47.33C65.6301 47.6694 65.4865 47.995 65.2312 48.235C64.9759 48.475 64.6295 48.6099 64.2684 48.6099H62.2692C61.9986 48.6121 61.7352 48.6919 61.5139 48.8384C61.2928 48.9849 61.1243 49.1913 61.0313 49.4302C59.8897 52.1068 57.9161 54.3979 55.3677 56.004C55.099 56.1829 54.9108 56.4494 54.8398 56.7517C54.7689 57.0538 54.8203 57.3702 54.9839 57.6387L56.5994 60.2624C56.781 60.5584 56.8278 60.9109 56.7294 61.2398C56.64 61.5599 56.4168 61.8328 56.1104 61.996L54.4145 62.9152C54.1081 63.0841 53.7424 63.1301 53.3994 63.0432C53.0588 62.9592 52.7685 62.7494 52.5948 62.4614L50.577 59.1745L50.3047 58.5928L49.76 58.7789C46.4817 59.8821 43.0234 60.4373 39.541 60.4195C36.4234 60.434 33.3228 59.9923 30.3498 59.1105C30.0442 59.0173 29.7127 59.0327 29.4185 59.154C29.1241 59.2751 28.8873 59.4936 28.7529 59.7679L27.4655 62.3684C27.312 62.6652 27.0396 62.893 26.7079 63.0021C26.3764 63.111 26.0123 63.0924 25.6953 62.9501L23.919 62.1764C23.5979 62.0391 23.3497 61.7849 23.2319 61.4724C23.1079 61.1607 23.1213 60.8151 23.2691 60.5125L24.5936 57.8365C24.7253 57.5683 24.7503 57.2647 24.664 56.9807C24.5776 56.6968 24.3857 56.4513 24.1232 56.289C19.7906 53.5199 17.3584 49.8022 17.3584 45.8174C17.3584 37.7892 27.311 31.2736 39.5414 31.2736C42.1993 31.2687 44.8461 31.5914 47.4145 32.2335C47.7595 32.3269 48.1301 32.2833 48.4402 32.1129C48.75 31.9426 48.9721 31.6603 49.0547 31.3318C49.3754 30.0575 50.2674 28.9764 51.5006 28.3674C52.7337 27.7583 54.1871 27.6809 55.4855 28.1554C55.519 28.1674 55.541 28.1974 55.5412 28.231C55.5511 28.2494 55.5511 28.2708 55.5412 28.2892C54.0302 29.3658 53.1416 31.0447 53.1397 32.8269C53.1258 33.1848 53.1486 33.5434 53.2078 33.8973C53.2801 34.2396 53.5057 34.5363 53.8267 34.7118C57.2929 36.6432 59.7498 39.1331 60.9382 42.0009C61.0334 42.2362 61.2032 42.4383 61.4247 42.5798C61.6459 42.7212 61.9084 42.7954 62.1761 42.7921H64.2867C64.6473 42.7905 64.9937 42.9241 65.2492 43.1632C65.5047 43.4022 65.6484 43.7273 65.6484 44.0661L65.6301 47.33Z" fill="#189276"/>
<path d="M29.0157 28.557C31.3516 28.557 33.5918 27.6848 35.2438 26.1324C36.8954 24.5798 37.8234 22.4742 37.8234 20.2785C37.8234 18.0828 36.8954 15.9773 35.2438 14.4247C33.592 12.8723 31.3517 12 29.0157 12C26.6796 12 24.4395 12.8723 22.7876 14.4247C21.136 15.9772 20.2079 18.0828 20.2079 20.2785C20.2094 22.4735 21.138 24.5784 22.7895 26.1305C24.4407 27.6827 26.6801 28.5555 29.0156 28.557L29.0157 28.557ZM29.0157 13.1638C31.0234 13.1638 32.9487 13.9133 34.3683 15.2477C35.788 16.5819 36.5855 18.3916 36.5855 20.2787C36.5855 22.1659 35.788 23.9754 34.3683 25.3097C32.9488 26.6442 31.0235 27.3937 29.0157 27.3937C27.0078 27.3937 25.0826 26.6442 23.663 25.3097C22.2433 23.9755 21.4458 22.1659 21.4458 20.2787C21.4474 18.3922 22.2454 16.5835 23.6647 15.2496C25.0841 13.9156 27.0084 13.1655 29.0154 13.164L29.0157 13.1638Z" fill="#189276"/>
<path d="M27.1524 23.2979C27.5782 23.661 28.1157 23.8871 28.6874 23.9437V24.4789C28.6874 24.7134 28.8897 24.9035 29.1393 24.9035C29.3888 24.9035 29.5911 24.7134 29.5911 24.4789V23.8971C30.1383 23.7679 30.6253 23.4735 30.9775 23.0594C31.3263 22.6552 31.5123 22.1486 31.5036 21.6283C31.5067 21.0965 31.2839 20.5855 30.8847 20.2088C30.7048 20.0297 30.4959 19.8785 30.2657 19.7608C29.9872 19.6096 29.6468 19.4409 29.2383 19.2605C28.9079 19.1433 28.5988 18.9784 28.3222 18.7719C28.1555 18.6199 28.0654 18.4083 28.0747 18.1901C28.07 17.9501 28.1816 17.7211 28.3779 17.5676C28.5839 17.396 28.8516 17.3044 29.1269 17.3117C29.4329 17.3102 29.7269 17.4233 29.9439 17.6258C30.0752 17.744 30.2429 17.82 30.4232 17.8431C30.6033 17.866 30.7864 17.8347 30.9466 17.7538C31.0448 17.7009 31.1152 17.6118 31.1411 17.5082C31.1669 17.4046 31.1458 17.2955 31.0827 17.2069C30.941 17.0122 30.7702 16.8379 30.5752 16.6892C30.2874 16.4865 29.9481 16.3581 29.5911 16.3169V15.8107C29.5911 15.5762 29.3888 15.386 29.1392 15.386C28.8897 15.386 28.6874 15.5762 28.6874 15.8107V16.3227C28.4263 16.3801 28.1758 16.4741 27.9447 16.6019C27.7373 16.7137 27.5511 16.8573 27.3938 17.0266C27.2464 17.1829 27.1329 17.3647 27.0596 17.5618C26.9722 17.7612 26.9259 17.9745 26.9234 18.1901C26.9134 18.6521 27.0928 19.1 27.4248 19.4409C27.801 19.7794 28.2478 20.041 28.7369 20.2088C29.065 20.3484 29.3249 20.4764 29.5292 20.5869C29.6976 20.6776 29.8553 20.7849 29.9996 20.9069C30.216 21.1114 30.3307 21.3925 30.3152 21.6806C30.328 22.0055 30.1903 22.3195 29.9377 22.5416C29.6855 22.7689 29.346 22.8907 28.9969 22.879C28.6572 22.898 28.3228 22.7938 28.0623 22.5882C27.8934 22.4187 27.7592 22.2215 27.6661 22.0064C27.5534 21.7613 27.278 21.6199 26.9977 21.6632C26.8321 21.7034 26.6915 21.8063 26.6095 21.9473C26.5275 22.0884 26.511 22.2551 26.5644 22.4078C26.6909 22.7405 26.8913 23.0439 27.1524 23.2979H27.1524Z" fill="#189276"/>
<path d="M43.5485 34.2582C39.4538 33.0161 35.0021 33.351 31.1696 35.189C30.9137 35.3123 30.7816 35.585 30.851 35.8473C30.9204 36.1095 31.1729 36.2924 31.4605 36.2885C31.5529 36.2844 31.6435 36.2625 31.7266 36.2245C33.4793 35.3808 35.3916 34.8705 37.3546 34.7227C39.3175 34.5751 41.2919 34.7927 43.1648 35.3635C43.4849 35.4494 43.8199 35.2819 43.923 34.9847C44.0263 34.6873 43.8609 34.3664 43.5485 34.2582L43.5485 34.2582Z" fill="#189276"/>
</svg>
