<svg width="64" height="64" viewBox="0 0 64 64" fill="none" xmlns="http://www.w3.org/2000/svg">
<circle cx="32" cy="32" r="32" fill="white"/>
<path d="M12.0234 46H6.3457L16.8574 19.6328H22.5703L33.0645 46H27.3867L25.2246 40.3398H14.1855L12.0234 46ZM15.9609 35.5938H23.4668L19.7051 25.8203L15.9609 35.5938ZM35.6309 46V19.6328H44.6484C46.8633 19.6328 48.7734 19.9961 50.3789 20.7227C51.9961 21.4375 53.2383 22.4629 54.1055 23.7988C54.9727 25.123 55.4062 26.7051 55.4062 28.5449C55.4062 30.3848 54.9727 31.9785 54.1055 33.3262C53.2383 34.6621 52.002 35.6934 50.3965 36.4199C48.8027 37.1465 46.9043 37.5098 44.7012 37.5098H41.0449V46H35.6309ZM41.0449 32.7637H44.1387C45.9785 32.7637 47.3906 32.4004 48.375 31.6738C49.3711 30.9355 49.8691 29.8926 49.8691 28.5449C49.8691 27.2207 49.3711 26.1953 48.375 25.4688C47.3906 24.7305 45.9785 24.3613 44.1387 24.3613H41.0449V32.7637Z" fill="#015AAB"/>
</svg>
