<svg width="623" height="733" viewBox="0 0 623 733" fill="none" xmlns="http://www.w3.org/2000/svg">
<path d="M370.351 395.459L370.82 392.447L369.598 390.457L370.393 386.436L367.154 385.995L365.321 382.045L365.633 378.933L368.035 374.713L372.212 374.216L374.315 372.61L376.873 377.001L379.843 378.478L383.253 377.185L386.777 379.416L390.372 377.313L390.813 380.368L393.811 379.203L397.534 379.8L397.818 381.917L392.518 390.827L388.61 393.001L388.226 398.045L375.623 401.313L376.39 398.585L377.441 399.48L380.795 398.031L383.523 396.084L383.821 394.464L380.61 393.015L379.53 394.99L375.338 394.535L373.321 392.589L373.136 390.784L372.155 394.763L373.818 397.32L370.351 395.459Z" fill="#CCE7FF" fill-opacity="0.3" stroke="#F1F5F8" stroke-opacity="0.5" stroke-width="0.5"/>
<path d="M460.227 221.434L459.246 217.526L457.271 215.224L457.996 214.073L459.886 215.665L460.141 208.603H457.981L456.347 212.695L457.001 215.082L454.671 214.898L454.642 216.461L451.658 216.333L449.981 211.871L450.18 210.834L453.861 212.411L457.186 208.105L459.203 198.073L456.759 195.501L459.09 195.842L460.553 194.109L461.633 195.26L468.028 195.175L468.738 193.754L470.6 193.597L473.754 196.482L475.175 195.288L476.951 196.482L481.186 194.791L481.527 193.256L483.275 192.56L483.047 195.899L486.074 195.572L485.378 202.166L482.791 204.866L483.218 215.793L480.561 216.02L480.66 217.526L482.251 218.464L480.532 220.752L481.655 223.949L479.083 226.99L477.079 232.446L478.188 236.596L481.257 240.887L479.722 242.493L479.708 244.198L481.299 245.292L480.291 248.873L476.951 251.345L474.067 251.601L471.552 250.208L470.727 247.651L462.799 245.477L460.653 244.212L460.369 242.549L458.45 243.558L454.884 242.976L456.021 237.704L458.919 233.299L460.227 221.434Z" fill="#CCE7FF" fill-opacity="0.3" stroke="#F1F5F8" stroke-opacity="0.5" stroke-width="0.5"/>
<path d="M490.251 179.146L492.383 176.475L494.358 168.745L492.113 164.34L490.99 164.226L488.177 167.665L486.017 167.068L481.285 169.711L479.964 169.043L480.944 162.521L484.127 154.151L494.003 161.27L496.688 160.901L499.587 158.528L497.47 168.262L498.109 183.381L500.056 190.286L501.733 191.835L502.685 191.281L505.726 194.748L501.647 198.556L499.885 197.462L496.489 199.153L495.523 197.619L487.381 203.146L485.392 202.166L486.088 195.572L483.061 195.899L483.289 192.56L481.541 193.256L481.2 194.791L476.965 196.482L475.189 195.288L473.768 196.482L470.614 193.597L468.752 193.754L468.042 195.175L461.647 195.26L460.567 194.109L459.104 195.842L456.773 195.501L456.873 190.926L454.656 188.61L459.559 183.423L462.173 184.048L465.953 181.519L467.502 171.004L465.541 169.839L467.573 169L468.141 164.809L471.537 167.707L473.91 166.002L476.397 167.565L476.795 174.372L479.139 180.723L481.029 180.567L482.72 178.748L483.189 174.13L490.251 179.146Z" fill="#CCE7FF" fill-opacity="0.3" stroke="#F1F5F8" stroke-opacity="0.5" stroke-width="0.5"/>
<path d="M454.06 374.486L455.608 374.77L455.85 372.255L458.337 371.331L460.482 368.262L461.633 368.404L458.067 363.701L457.086 364.113L455.054 359.821L455.864 357.562L452.397 349.505L457.086 354.947L462.898 358.187L471.623 355.615L477.818 358.059L482.948 362.407L482.791 363.331L477.363 363.26L473.498 366.201L469.932 371.502L469.321 380.596L467.303 382.386L462.102 382.926L455.438 390.429L451.644 388.155L454.6 387.104L453.491 384.745L453.477 380.539L454.898 378.791L453.292 376.518L454.06 374.486Z" fill="#CCE7FF" fill-opacity="0.3" stroke="#F1F5F8" stroke-opacity="0.5" stroke-width="0.5"/>
<path d="M247.906 445.036L248.233 444.425L248.73 444.056L249.228 444.113L249.256 443.828L248.844 443.644L248.304 443.416L247.636 443.644L247.238 443.971L246.613 443.615L246.329 444.155L245.76 443.971L245.562 443.644H244.908L245.093 443.004L245.334 442.82L245.533 442.677L245.974 442.507L245.931 442.265L245.874 441.91L245.448 441.953L245.135 441.427L245.633 441.015L245.533 440.503L245.149 440.404L245.647 439.949L245.874 439.892L246.187 439.509L246.315 438.855L245.988 439.04L245.419 438.969L245.661 438.386L244.936 438.528L244.467 438.017L244.141 438.102L243.643 438.514L242.421 439.367L241.682 439.566L241.213 440.091L239.65 440.56L238.84 441.313L238.613 441.754L238.173 442.152L237.448 442.237L237.405 441.896L237.903 441.583L237.917 441.342L237.192 441.37L235.984 442.379L235.26 442.82L234.904 442.834L237.959 440.262L238.684 439.836L239.622 439.324L240.432 439.438L240.872 438.969L241.313 438.77L241.966 438.713L242.308 438.514L242.45 438.258L244.098 437.519L245.32 436.61L246.386 436.042L246.684 435.331L247.863 433.924L248.759 433.271L250.961 432.475L252.695 431.182L252.993 430.841L253.519 429.448L254.158 428.88L253.832 427.857L253.817 426.45L254.102 424.972L254.443 424.034L255.054 424.276L255.665 423.864L256.148 422.13L256.247 421.249L258.762 418.876L260.34 418.635L260.254 417.995L260.624 417.754L260.411 416.958L260.922 416.105L261.988 417.342L263.38 419.345L264.403 421.448L264.943 422.301L265.128 422.912L265.839 423.423L267.189 422.969L269.149 422.486L269.675 422.343L269.505 421.69L271.21 421.406L271.551 421.036L272.091 421.107L272.617 421.576L273.611 421.15L274.578 421.292L275.26 421.434L276.297 421.903L277.007 421.804L277.988 421.093L278.272 420.61L278.471 419.985L278.698 419.871L279.267 419.487L279.736 419.871L281.086 420.056L281.952 420.539L281.54 421.505L281.924 422.201V423.679L281.611 424.546L281.128 424.958L280.546 424.972L279.622 424.958L278.954 425.427L278.229 424.944L277.931 425.001L277.135 426.095L276.837 426.478L276.553 426.706L273.611 426.805L272.475 426.621L270.386 426.649L270.102 426.891L269.789 427.928L269.533 428.084L268.794 428.354L268.311 427.871L268.027 427.899L267.657 428.88L267.103 430.002L266.535 430.571L266.038 431.281L265.952 432.063L265.64 432.461L264.773 432.603L264.517 433.526L264.162 434.564L263.892 435.217L264.304 435.629L264.361 436.368L263.849 436.752L263.039 438.002L263.025 438.386L261.32 438.869L261.022 438.685L260.084 438.798L258.236 438.5L257.654 438.656L257.199 439.082L257.697 439.537L257.91 440.873L258.123 441.157H258.407L258.734 442.18L259.373 442.379L259.757 442.891L259.814 443.701L259.7 444.013L258.563 444.667L256.844 445.264L256.403 446.003L256.148 447.622L255.537 447.665L255.295 447.878L255.096 448.546L254.087 449.825L253.817 449.924L252.467 448.617L252.311 448.233L252.027 448.333L251.828 448.745L252.24 449.626L252.197 449.995L252.865 450.72L253.164 450.791L253.292 451.217L253.007 452.525L253.434 452.965L253.732 454.301L253.718 456.191L253.135 456.333L253.064 456.873L252.609 456.702L251.274 457.2L251.075 456.816L250.72 456.333L250.592 456.077L249.938 456.304L249.668 456.432L249.299 456.518L249.27 456.93L249.299 457.114L249.029 457.484L248.531 457.441L248.148 457.455L247.792 457.399L247.906 456.873L247.451 456.333L247.593 456.162L248.105 456.106L248.602 455.736L247.707 455.253L248.105 454.926L248.446 455.125L248.659 455.182L248.858 455.04L248.56 454.486L248.702 454.116L248.276 453.917L248.105 453.86L248.091 452.681L247.693 452.624L247.196 453.093L246.599 452.752L246.059 452.994L245.874 453.107L245.746 453.406L245.675 453.818L245.164 453.562L245.633 452.994L245.661 452.454L245.874 451.956L246.187 451.885L246.471 452.042L246.67 452.525L247.139 452.439L247.949 452.127L248.133 451.743L247.707 451.573L248.006 451.019L248.546 450.166L248.517 449.697L247.963 449.569L247.75 449.583L247.437 449.697L247.224 449.882L246.911 449.683L246.982 449.328L246.471 449.086L246.684 448.617L247.096 448.12L246.357 447.324L247.082 447.608L248.062 448.091L248.474 448.56L248.972 448.589L248.858 448.063L248.574 447.48L249.014 447.097L249.81 447.153L250.137 447.111L250.265 446.884L250.066 446.4L249.668 446.457L249.128 445.974L249.682 445.676L249.739 445.235L248.602 445.306L247.906 445.036Z" fill="#CCE7FF" fill-opacity="0.3" stroke="#F1F5F8" stroke-opacity="0.5" stroke-width="0.5"/>
<path d="M339.118 367.48L341.306 368.986L340.994 367.466L342.571 366.869L341.392 365.036L342.841 366.23L345.853 365.647L345.299 362.265L347.061 360.859L347.289 363.743L348.653 364.354L349.363 360.375L345.385 353.356L350.017 344.12L353.399 342.571L356.738 347.132L359.608 348.098L362.095 347.502L365.079 350.457L367.765 349.775L367.012 352.972L369.939 357.818L368.802 359.58L364.695 359.509L360.66 361.299L357.065 359.992L354.379 364.383L350.869 363.232L351.409 367.75L349.846 367.296L346.862 370.237L345.115 369.285L343.637 373.221L341.406 373.036L340.17 374.94L333.619 374.201L331.573 371.246L331.829 367.949L333.079 368.191L333.036 370.095L336.702 370.649L339.232 370.109L339.615 368.859L337.853 368.375L339.118 367.48Z" fill="#CCE7FF" fill-opacity="0.3" stroke="#F1F5F8" stroke-opacity="0.5" stroke-width="0.5"/>
<path d="M189.746 431.267L191.508 429.349L190.968 427.033L193.199 424.532L196.141 424.759L198.116 422.855L203.473 424.404L206.627 421.832L206.414 425.555L205.292 426.55L206.542 427.019L209.299 433.598L211.629 434.265L211.473 437.321L206.059 437.42L203.771 439.381L201.981 442.891L202.805 444.468L201.696 446.301L203.359 448.475L202.18 450.791L197.689 448.674L196.936 450.72L194.805 450.479L192.503 452.596L192.759 454.116L189.718 454.003L190.4 452.44L188.41 449.328L189.49 446.102L193.569 442.905L193.597 439.708L190.556 441.1L186.165 438.329L179.544 438.628L182.812 436.297L183.082 435.516L180.936 434.848L184.304 431.978L186.364 434.862L189.675 433.669L190.656 432.148L189.746 431.267Z" fill="#CCE7FF" fill-opacity="0.3" stroke="#F1F5F8" stroke-opacity="0.5" stroke-width="0.5"/>
<path d="M485.69 318.542L481.271 321.384L480.759 323.004L475.886 321.526L475.076 320.063L475.246 322.564L471.594 325.249L465.868 320.347L465.626 317.235L464.418 317.306L462.642 314.592L455.807 312.773L441.342 321.214L437.321 319.963L437.719 312.56L435.246 309.874L436.909 306.251L436.155 303.75L436.965 302.443L441.768 302.031L442.806 300.112L447.026 300.155L446.074 295.338L451.317 289.228L453.335 289.924L456.902 289.043L458.28 291.43L460.028 290.777L462.116 292.368L465.015 291.942L466.905 289.654L466.493 283.8L468.468 284.738L470.074 283.928L472.219 286.457L477.15 286.485L478.074 289.825L480.688 290.919L480.234 290.137L482.678 289.924L482.635 286.841L484.653 286.713L486.898 292.027L487.68 300.596L485.69 318.542ZM480.816 323.033L480.859 323.047L480.816 323.033Z" fill="#CCE7FF" fill-opacity="0.3" stroke="#F1F5F8" stroke-opacity="0.5" stroke-width="0.5"/>
<path d="M358.258 379.658L357.235 378.677L359.011 373.789L357.832 368.986L355.502 368.276L355.672 366.002L354.365 364.383L357.05 359.992L360.645 361.299L364.681 359.509L368.788 359.58L369.91 357.818L366.997 352.972L367.75 349.775L368.134 347.175L370.336 344.475L368.844 342.486L371.175 340.07L373.335 341.121L373.931 343.367L379.217 337.129L383.267 336.816L383.622 338.123L385.541 336.986L385.939 338.095L391.082 339.374L392.859 341.789L390.159 347.999L391.821 350.216L391.267 352.446L387.956 356.482L385.256 356.61L383.764 359.239L387.473 361.058L389.718 364.596L390.002 369.399L392.333 369.711L391.409 371.999L392.418 373.391L391.182 373.804L391.551 375.608L390.372 377.285L386.791 379.388L383.253 377.157L379.843 378.464L376.887 376.987L374.329 372.596L372.212 374.187L368.049 374.685L365.647 378.919L365.335 382.031L363.8 381.86L361.399 378.308L358.258 379.658Z" fill="#CCE7FF" fill-opacity="0.3" stroke="#F1F5F8" stroke-opacity="0.5" stroke-width="0.5"/>
<path d="M449.115 345.228L447.978 346.308H443.63L441.058 344.404L434.209 343.21L431.836 348.411L429.662 348.51L422.727 353.086L420.838 352.205L420.766 349.193L418.82 347.047L420.34 346.592L419.459 343.239L420.923 342.272L420.61 338.535L415.651 338.876L413.875 337.825L413.79 335.978L414.614 332.212L417.342 330.308L417.356 328.759L422.102 327.068L424.674 327.04L425.655 324.667L428.681 323.828L428.738 321.853L430.074 321.64L429.69 318.898L432.021 318.5L433.356 316.113L437.335 319.978L441.356 321.228L440.532 323.416L441.981 324.042L440.532 326.045L439.836 330.919L444.155 332.837L440.944 340.113L443.957 343.423L447.978 343.367L449.115 345.228Z" fill="#CCE7FF" fill-opacity="0.3" stroke="#F1F5F8" stroke-opacity="0.5" stroke-width="0.5"/>
<path d="M303.537 394.99L301.988 396.269L300.269 395.956L297.711 391.963L298.706 390.102L297.739 388.894L298.166 386.308L300.738 382.315L302.045 382.045L301.874 378.862L305.029 377.598L304.873 375.338L300.865 366.017L305.626 364.027L307.928 365.121L309.093 364.169L314.905 364.425L314.933 367.296L316.453 369.299L319.835 369.384V373.122L318.542 373.86L316.922 373.079L316.425 376.304L320.432 378.777L322.961 378.152L323.871 381.207L326.414 381.093L326.784 382.216L329.384 382.656L329.015 385.498L327.992 385.882L328.333 388.113L331.7 389.463L330.407 390.187L331.601 397.221L330.834 398.94L330.052 397.065L326.784 396.482L323.828 398.784L320.162 399.693L314.095 397.249L311.722 394.905L303.537 394.99ZM316.894 410.734L317.207 411.828L310.983 414.457L308.837 411.019L318.627 400.262L319.253 401.441L315.643 406.869L316.894 410.734Z" fill="#CCE7FF" fill-opacity="0.3" stroke="#F1F5F8" stroke-opacity="0.5" stroke-width="0.5"/>
<path d="M469.491 102.3L473.413 98.4211L467.686 90.8474L468.269 86.5561L470.599 86.7124L472.503 85.0499L480.745 91.8705L486.997 90.1795L486.798 91.8421L491.118 93.8172L494.244 92.0836L498.45 86.755L495.807 71.4939L497.257 68.5099L503.31 65.2985L504.631 62.6129L504.717 48.6733L507.757 43.3304L508.781 35.8704L507.26 25.7674L502.599 12.3109L504.93 7.73536L504.56 3.94139L506.365 6.00178L508.866 5.60392L512.802 1L529.47 20.6093L535.026 30.8828L542.159 38.9255L554.578 49.1564L559.836 51.9131L572.795 56.1333L577.385 56.4459L577.711 59.3589L579.786 62.2577L584.347 63.6928L592.845 63.5223L603.971 53.2772L608.234 47.6502L608.873 50.8189L602.55 62.1013L600.248 69.2062L608.859 87.3945L605.321 85.5756L605.278 87.8918L606.5 86.9398L607.282 88.8438L611.473 89.327L616.816 84.3394L621.477 84.6236L619.545 86.6271L614.415 88.517L613.278 92.6804L610.422 92.0979L602.649 93.803L597.846 100.041L595.147 99.8989L593.598 97.0712L590.869 99.6716L592.461 101.86L582.884 101.178L579.672 99.16L575.324 99.9274L567.054 105.199L559.566 112.688L553.768 120.929L551.594 125.633L551.978 130.052L549.534 140.013L544.276 134.727L525.903 125.533L519.921 120.247L515.36 118.911L509.619 114.307L503.637 113.498L499.132 114.975L490.109 121.299L486.614 125.831L484.624 124.482L486.003 124.979L486.173 123.828L484.255 123.245L483.018 119.878L478.415 115.146L471.779 114.975L467.345 121.455L466.734 127.835L473.924 132.879L479.85 132.766L485.448 140.311L491.828 144.347L485.69 148.027L480.532 145.611L478.216 146.876L478.642 144.403L476.582 143.977L475.388 146.833L471.026 148.951L470.585 154.549L465.896 156.51L464.063 159.636L459.715 157.789L458.066 152.702L460.567 144.375L462.059 143.65L461.931 136.986L459.232 132.808L456.432 132.126L454.457 129L452.837 128.418L452.013 125.405L454.258 121L453.605 114.066L454.912 112.006L459.757 111.039L462.599 108.709L463.807 105.981L465.782 108.169L467.047 107.842L469.491 102.3ZM490.408 15.0107L490.28 13.2629L492.098 11.4867L495.04 13.2061L495.765 15.778L493.193 17.8952L490.408 15.0107ZM445.107 130.35L444.695 133.505L443.175 135.238L441.796 130.478L446.23 127.65L445.107 130.35ZM488.233 7.03909L487.31 10.9041L485.633 3.30196L486.557 4.50978L487.949 3.84192L488.233 7.03909Z" fill="#CCE7FF" fill-opacity="0.3" stroke="#F1F5F8" stroke-opacity="0.5" stroke-width="0.5"/>
<path d="M252.326 414.017L251.217 413.022L249.157 415.509L250.919 417.242L247.338 417.967L249.399 412.681L248.603 408.845L246.741 407.921L243.502 409.399L241.1 413.15L238.812 412.98L236.383 404.852L235.686 403.956L237.846 401.839L239.139 397.86L238.358 397.377L241.285 393.853L242.976 394.692L246.983 393.313L249.654 394.081L254.244 392.376L252.709 390.173L255.608 388.383L259.018 383.651L266.564 384.518L270.159 385.157L271.594 386.891L270.926 390.869L273.2 393.711L273.356 399.978L275.246 404.795L272.816 408.418L269.406 407.694L270.159 407.111L269.306 405.96L265.086 407.821L264.759 409.214L259.516 409.839L258.237 411.019L256.873 410.337L255.807 412.752L252.326 414.017Z" fill="#CCE7FF" fill-opacity="0.3" stroke="#F1F5F8" stroke-opacity="0.5" stroke-width="0.5"/>
<path d="M474.479 342.074L475.601 349.747L482.948 362.408L477.818 358.059L471.623 355.615L462.898 358.187L457.086 354.947L452.397 349.505L451.289 349.86L450.308 345.811L453.676 344.489L454.457 342.088L456.063 342.486L457.839 339.928L464.035 338.805L465.64 334.514L464.802 329.171L466.678 327.878L465.839 320.375L471.566 325.278L475.218 322.592L475.047 320.091L475.857 321.555L480.731 323.033L480.788 323.061L480.83 323.075L475.715 336.148L475.942 340.241L474.479 342.074Z" fill="#CCE7FF" fill-opacity="0.3" stroke="#F1F5F8" stroke-opacity="0.5" stroke-width="0.5"/>
<path d="M366.784 314.848L366.699 313.015L365.306 312.901L367.238 306.166L378.592 300.567L383.736 299.501L384.645 302.272L381.604 303.125L382.045 306.279L381.107 307.672L377.299 308.311L374.841 311.636L373.093 309.903L371.018 312.986L371.786 313.313L370.606 315.53L372.198 314.848L373.803 316.425L375.949 314.535L376.006 319.494L373.207 319.722L371.217 321.668L368.588 331.331L369.498 333.761L368.83 342.5L370.322 344.489L368.12 347.203L367.722 349.803L365.036 350.486L362.052 347.53L359.565 348.127L356.695 347.161L353.356 342.599L358.23 338.223L366.144 326.869L368.034 321.47L366.784 314.848Z" fill="#CCE7FF" fill-opacity="0.3" stroke="#F1F5F8" stroke-opacity="0.5" stroke-width="0.5"/>
<path d="M511.907 236.766L512.575 237.633L511.395 237.576L513.328 239.281L510.827 239.849L512.333 240.901L509.974 242.009L512.347 243.487L509.321 243.16L509.619 244.539L511.068 244.908L509.335 245.164L510.003 246.372L507.786 246.613L506.763 244.894L507.402 247.594L506.28 249.455L505.328 247.082L504.02 247.21L504.248 248.276L500.539 247.395L498.806 255.139L495.324 253.718L493.065 256.205L490.55 254.77L490.365 251.729L486.202 251.8L481.655 248.659L480.305 248.858L481.313 245.278L479.722 244.183L479.736 242.478L481.271 240.873L478.202 236.581L477.093 232.432L479.097 226.976L481.669 223.935L480.546 220.737L482.266 218.45L480.674 217.512L480.575 216.006L483.232 215.778L482.806 204.851L485.392 202.151L487.381 203.132L495.523 197.604L496.489 199.139L499.885 197.448L501.647 198.542L505.726 194.734L509.861 202.549L508.468 204.084L511.111 205.846L509.903 208.361L513.342 211.729L514.266 222.457L513.058 226.109L515.289 223.565L515.317 226.436L516.596 227.558L513.299 230.215L513.91 231.466L516.283 230.315L515.672 232.205L511.679 235.118L513.91 235.785L511.907 236.766Z" fill="#CCE7FF" fill-opacity="0.3" stroke="#F1F5F8" stroke-opacity="0.5" stroke-width="0.5"/>
<path d="M265.583 451.985L265.242 453.448L262.954 453.576L262.812 458.18L261.192 458.862L263.096 463.424L259.174 461.207L256.958 462.67L254.428 460.937L252.169 462.187L254.585 457.271L253.064 456.83L253.292 451.175L251.828 448.717L254.087 449.782L256.83 445.221L259.8 443.672L257.185 439.04L263.011 438.344L264.759 432.56L268.013 427.857L281.086 424.916L283.516 426.422L286.088 426.18L288.119 427.914L289.583 426.479L291.501 426.706L292.368 431.338L295.167 431.409L296.063 435.672L299.061 435.985L296.389 441.072L295.466 446.145L288.645 437.988L283.416 436.369L278.94 437.079L275.317 440.333L272.205 440.916L271.423 442.436L269.775 442.024L268.78 449.129L267.7 448.802L265.583 451.985Z" fill="#CCE7FF" fill-opacity="0.3" stroke="#F1F5F8" stroke-opacity="0.5" stroke-width="0.5"/>
<path d="M284.297 411.004L287.338 409.271L287.594 407.906L292.851 409.015L294.372 407.31L295.111 409.739L298.024 409.455L297.711 411.16L302.983 413.818L302.159 415.494L295.48 414.983L290.62 418.379L288.731 417.001L286.77 417.356L281.953 420.453L279.281 419.402L280.716 414.315L278.656 412.127L281.356 413.15L284.297 411.004Z" fill="#CCE7FF" fill-opacity="0.3" stroke="#F1F5F8" stroke-opacity="0.5" stroke-width="0.5"/>
<path d="M198.968 484.041L195.459 481.242L191.352 483.672L188.652 482.208L194.521 472.958L193.725 470.926L194.862 470.656L193.583 469.874L197.05 466.436L191.437 466.947L195.316 463.807L195.615 461.15L191.039 457.228L189.775 454.059L192.816 454.173L192.56 452.652L194.862 450.535L196.993 450.777L197.746 448.731L202.236 450.848L206.329 453.604L207.281 451.501L206.272 448.731L209.725 448.29L212.695 452.61L213.832 458.123L215.821 459.928L214.03 460.155L209.81 467.857L207.153 469.32L207.167 472.887L209.739 476.581L207.778 478.926L209.654 482.137L206.826 481.782L205.263 483.644L198.968 484.041ZM190.414 470.144L189.576 474.251L184.602 473.413L184.233 476.581L179.174 482.35L178.606 479.565L177.569 479.267L179.785 470.358L183.75 469.221L184.247 472.39L187.416 470.215L190.414 470.144ZM183.068 480.262L183.778 478.414L184.403 482.18L183.082 484.34L181.263 481.597L181.462 480.361L183.068 480.262ZM191.125 468.965L189.86 469.121L189.547 467.885L190.911 466.62L191.125 468.965Z" fill="#CCE7FF" fill-opacity="0.3" stroke="#F1F5F8" stroke-opacity="0.5" stroke-width="0.5"/>
<path d="M428.312 373.377L428.894 371.771L433.796 368.787L434.308 364.084L437.534 366.414L441.853 367.196L443.772 369.882L444.468 366.969L443.345 366.088L445.434 365.136L449.242 366.94L450.393 368.759L451.985 369.512L448.233 371.118L449.896 372.013L448.02 373.576L448.603 376.816L451.487 378.251L448.944 380.667L449.526 382.244L447.622 382.201L446.542 376.972L442.933 376.091L436.439 377.512L434.791 378.834L433.654 382.301L431.494 382.002L430.315 380.269L430.685 373.69L428.312 373.377Z" fill="#CCE7FF" fill-opacity="0.3" stroke="#F1F5F8" stroke-opacity="0.5" stroke-width="0.5"/>
<path d="M185.896 506.209L187.885 500.184L183.21 494.13L184.816 490.294L183.523 486.756L184.333 485.221L183.31 484.397L184.802 483.018L188.041 483.544L188.667 482.18L191.366 483.644L195.473 481.214L198.983 484.013L198.301 485.434L203.587 490.606L203.374 493.747L206.258 494.585L208.134 499.345L208.844 498.521L211.885 499.686L212.226 503.068L211.175 505.029L209.512 504.432L207.125 507.09L207.011 508.226L209.526 509.093L208.645 510.713L210.194 510.926L206.954 512.589L205.533 515.445L197.093 520.106L196.88 517.619L199.437 515.644L201.1 509.022L198.159 504.844L198.315 502.088L195.16 500.965L197.604 499.388L198.514 501.448L200.02 501.576L201.626 498.649L200.929 497.086L197.136 495.978L195.942 496.93L193.185 503.338L194.464 509.534L197.263 511.253L195.061 514.805L193.114 514.521L191.494 511.736L184.617 511.821L183.452 509.377L184.475 508.596L182.286 506.493L183.054 505.555L184.901 506.962L185.896 506.209ZM192.489 537.413L197.334 540.198L196.795 542.699L193.171 545.001L190.77 544.603L189.064 540.297L192.489 537.413ZM205.079 533.619L204.823 530.692L208.134 525.136L208.759 529.811L205.505 536.802L206.045 539.445L202.99 541.221L202.308 537.228L205.079 533.619ZM170.791 499.019L169.697 499.686L168.929 498.464L172.496 494.13L170.791 499.019ZM173.86 492.624L173.903 491.146L176.588 492.212L175.253 493.491L173.86 492.624ZM184.972 537.186L185.938 538.265L184.418 538.72L182.514 536.518L184.972 537.186Z" fill="#CCE7FF" fill-opacity="0.3" stroke="#F1F5F8" stroke-opacity="0.5" stroke-width="0.5"/>
<path d="M329.015 385.541L329.37 382.699L326.77 382.258L326.4 381.121L323.857 381.235L322.962 378.18L320.418 378.805L316.425 376.319L316.923 373.107L318.542 373.889L319.835 373.15L319.85 369.413L316.468 369.327L314.947 367.324L314.919 364.453L316.667 364.851L324.709 360.631L327.182 363.303L323.928 368.517L325.193 367.125L326.059 367.608L325.335 368.631L327.608 369.029L327.807 370.99L329.683 370.606L327.963 368.759L329.171 367.793L331.203 366.798L331.8 367.963L331.544 371.26L333.59 374.215L340.127 374.954L342.4 377.555L341.548 385.427L342.883 390.756L344.93 390.883L347.26 394.18L347.899 395.885L346.592 396.837L344.603 395.359L342.514 397.079L339.786 396.34L339.047 394.606L339.445 393.725L335.793 388.07L334.727 388.041L334.898 389.605L333.775 389.974L332.34 387.445L329.271 386.592L329.015 385.541Z" fill="#CCE7FF" fill-opacity="0.3" stroke="#F1F5F8" stroke-opacity="0.5" stroke-width="0.5"/>
<path d="M366.087 411.075L366.755 409.541L365.945 409.072L363.444 412.113L362.535 411.075L361.81 412.411L360.702 411.402L360.773 413.079L355.075 414.713L354.89 417.91L353.512 417.285L352.176 418.237L354.421 420.027L354.18 421.733L349.348 424.617L346.833 430.131L345 429.747L342.585 426.99L342.684 424.262L347.146 419.686L349.448 420.042L349.235 414.315L350.272 412.383L349.292 410.749L350.244 410.237L348.595 407.608L349.306 406.258L352.404 405.804L352.958 404.468L350.954 402.052L347.942 401.143L349.022 398.13L347.885 395.9L347.245 394.18L349.15 393.399L349.718 390.429L353.526 391.892L356.837 390.287L359.338 381.903L358.229 379.672L361.37 378.322L363.785 381.86L365.32 382.031L367.153 385.981L364.766 387.246L364.624 390.287L361.881 394.479L361.583 400.02L369.981 403.701L372.539 406.869L370.933 407.821L371.984 408.503L370.862 411.999L367.537 411.701L369.853 411.857L369.27 410.763L366.087 411.075Z" fill="#CCE7FF" fill-opacity="0.3" stroke="#F1F5F8" stroke-opacity="0.5" stroke-width="0.5"/>
<path d="M488.362 270.429L487.779 271.437L488.973 272.489L487.182 273.555L484.752 278.699L484.639 286.727L482.621 286.855L482.664 289.938L480.22 290.152L480.674 290.933L478.06 289.839L477.136 286.5L472.205 286.471L470.06 283.942L468.454 284.752L466.479 283.814L466.394 281.001L470.244 280.205L472.077 276.51L471.978 273.327L475.672 266.691L473.797 260.212L475.431 260.254L476.696 255.679L474.067 251.587L476.951 251.331L480.291 248.858L481.64 248.659L486.188 251.8L490.351 251.729L490.536 254.77L493.051 256.205L495.31 253.718L498.792 255.139L500.525 247.395L504.234 248.276L505.442 252.326L503.196 251.26L503.069 253.633L500.909 255.608L502.358 256.574L502.287 258.294L501.278 257.384L498.99 258.961L498.948 259.984L501.392 260.283L499.516 262.215L500.426 263.963L501.96 264.233L501.548 265.583L500.383 264.816V267.16L499.061 267.132L499.729 268.908L501.619 268.681L500.724 269.263L501.207 273.214L498.181 270.585L499.36 269.633L498.593 268.723L496.987 269.263L496.362 268.169L492.767 268.723L490.394 271.466L490.294 269.505L488.362 270.429Z" fill="#CCE7FF" fill-opacity="0.3" stroke="#F1F5F8" stroke-opacity="0.5" stroke-width="0.5"/>
<path d="M220.681 485.804L219.032 492.667L220.212 494.329L219.501 499.417L217.1 503.026L216.318 508.056L213.618 507.559L212.652 505.413L211.16 505.044L212.212 503.083L211.871 499.701L208.83 498.536L208.119 499.36L206.244 494.599L203.359 493.761L203.572 490.621L198.286 485.448L198.968 484.027L205.249 483.587L206.812 481.726L209.64 482.081L207.764 478.869L209.725 476.525L207.153 472.83L207.139 469.264L209.796 467.8L214.016 460.098L215.807 459.871L217.043 460.709L219.913 459.715L222.386 462.443L226.293 461.846L228.339 459.757L230.67 460.638L230.3 462.855L231.096 462.869L225.597 469.363L226.947 471.011L224.744 472.035L225.853 473.313L224.546 473.825L222.883 477.775L220.681 485.804Z" fill="#CCE7FF" fill-opacity="0.3" stroke="#F1F5F8" stroke-opacity="0.5" stroke-width="0.5"/>
<path d="M408.503 312.162L418.066 304.816L423.494 296.844L426.748 288.73L438.329 282.095L440.816 279.423L443.161 274.322L443.345 268.809L445.974 263.48L450.649 265.299L450.436 268.553L451.573 270.158L455.821 272.588L454.699 274.848L452.752 276.07L450.507 275.757L449.768 276.922L450.01 281.015L448.191 286.244L451.317 289.242L446.074 295.352L447.026 300.169L442.805 300.127L441.768 302.045L436.965 302.457L436.155 303.764L436.908 306.265L435.246 309.889L437.718 312.574L437.32 319.977L433.342 316.112L431.992 318.5L429.676 318.897L430.059 321.64L428.724 321.853L428.667 323.828L425.64 324.667L424.66 327.04L422.088 327.068L421.988 323.146L419.132 320.958L418.478 317.42L417.327 317.093L413.69 318.244L410.962 321.228L410.592 323.572L408.617 322.663L404.098 325.136L402.748 324.155L403.018 321.526L398.926 321.1L399.04 322.933L395.985 326.286L394.564 320.247L392.404 318.741L400.105 315.928L405.207 312.034L408.503 312.162ZM415.608 276.965L415.04 280.262L418.592 280.119L416.574 285.704L412.667 288.873L408.631 289.597L412.439 283.032L410.478 282.663L409.1 283.814L409.313 279.892L411.7 275.857L414.784 273.654L415.438 271.466L416.986 271.096L415.608 276.965Z" fill="#CCE7FF" fill-opacity="0.3" stroke="#F1F5F8" stroke-opacity="0.5" stroke-width="0.5"/>
<path d="M390.372 377.285L391.551 375.608L391.182 373.803L392.418 373.391L391.409 371.999L392.333 369.711L390.002 369.398L389.718 364.596L387.473 361.057L383.764 359.239L385.256 356.61L387.956 356.482L391.267 352.446L391.821 350.215L390.158 347.999L392.858 341.789L391.082 339.373L394.35 334.94L394.038 333.206L395.714 332.212L395.999 326.272L399.054 322.919L398.94 321.086L403.018 321.512L402.762 324.155L404.112 325.135L408.631 322.663L410.592 323.572L410.961 321.228L413.69 318.244L417.341 317.093L418.492 317.42L419.146 320.958L422.002 323.146L422.102 327.068L417.356 328.759L417.341 330.308L414.613 332.212L413.789 335.977L413.874 337.825L415.651 338.876L420.61 338.535L420.922 342.272L419.459 343.238L420.34 346.592L418.819 347.047L420.766 349.192L420.837 352.205L422.727 353.086L423.04 355.97L420.056 357.306L419.288 355.686L415.793 356.354L415.125 354.649L413.093 353.825L410.578 357.675L409.27 356.965L407.892 359.764L409.143 360.986L407.722 362.549L408.759 365.064L406.627 368.119L406.613 374.443L397.533 379.786L393.825 379.175L390.826 380.34L390.372 377.285Z" fill="#CCE7FF" fill-opacity="0.3" stroke="#F1F5F8" stroke-opacity="0.5" stroke-width="0.5"/>
<path d="M347.899 395.885L349.036 398.116L347.956 401.129L350.955 402.038L352.958 404.454L352.404 405.804L349.306 406.258L348.596 407.608L350.23 410.237L349.292 410.749L350.273 412.397L349.249 414.329L349.448 420.056L347.146 419.701L342.699 424.276L336.333 425.129L335.495 424.134L336.503 421.534L333.917 417.64L336.574 413.747L339.047 413.036L336.631 407.992L337.768 405.903L336.873 400.447L339.047 394.606L339.786 396.34L342.514 397.079L344.603 395.36L346.592 396.837L347.899 395.885Z" fill="#CCE7FF" fill-opacity="0.3" stroke="#F1F5F8" stroke-opacity="0.5" stroke-width="0.5"/>
<path d="M185.796 458.493L187.828 458.805L189.079 461.235L188.24 465.072L183.21 467.8L182.23 464.901L184.319 462.443L183.551 461.079L180.908 461.036L177.199 461.917L175.594 465.441L171.175 468.496L173.775 463.054L172.212 460.241L171.16 460.681L169.882 459.445L168.134 455.779L169.015 451.686L170.393 451.303L170.99 453.988L173.334 454.415L172.581 458.678L174.244 459.843L175.622 458.237L178.748 459.345L176.574 456.788L176.588 453.363L171.203 451.644L170.748 448.788L169.157 450.905L169.455 448.788L165.974 447.054L167.182 441.555L168.02 442.209L169.299 440.958L169.469 442.479L172.425 441.839L172.723 443.033L171.885 444.44L173.42 448.177L176.844 448.859L176.39 451.345L180.226 454.784L184.205 455.75L182.045 458.408L183.253 459.459L185.796 458.493ZM159.764 409.754L160.262 408.134L159.466 409.143L156.88 408.631L159.736 402.82L158.556 401.555L159.509 398.898L161.555 398.798L163.118 396.937L164.482 398.201L163.8 402.038L160.887 405.491L162.194 408.972L160.944 410.024L161.54 410.805L159.722 411.502L158.429 416.418L156.482 417.967L155.189 417.342L156.269 409.612L156.78 410.905L159.764 409.754ZM146.08 462.827L147.501 466.152L144.077 466.024L144.134 468.397L143.096 467.26L139.246 467.09L139.629 465.924L141.292 465.768L140.894 461.477L142.329 462.5L145.171 460.894L146.08 462.827ZM153.441 452.61L153.001 454.813L155.175 453.932L155.672 454.94L153.242 457.058L152.191 460.34L151.523 456.049L150.286 456.091L151.864 455.026L153.711 448.759L153.441 452.61ZM165.192 441.598L166.045 440.589L166.471 442.336L163.501 447.125L160.873 448.603L160.39 447.438L161.555 448.035L161.825 445.221L165.192 441.598ZM146.564 459.416L147.743 460.155L147.132 462.088L146.066 461.392L146.564 459.416ZM150.741 458.876L149.405 457.569L150.414 457.711L150.159 456.475L151.437 457.64L151.281 459.388L150.741 458.876ZM154.493 444.397L154.18 445.946L152.56 445.605L154.493 444.397ZM148.837 460.866L147.388 458.308L148.567 459.587L149.349 458.535L148.837 460.866ZM161.91 441.825L162.691 439.466V442.436L161.91 441.825ZM166.642 438.187L164.439 438.528L166.102 437.207L166.642 438.187ZM152.233 447.992L151.807 446.955L153.271 447.082L152.233 447.992Z" fill="#CCE7FF" fill-opacity="0.3" stroke="#F1F5F8" stroke-opacity="0.5" stroke-width="0.5"/>
<path d="M117.306 664.177L122.023 660.696L119.551 659.715L119.068 656.447L122.478 657.03L122.705 658.991L124.013 658.834L128.986 653.761L129.455 651.502L131.117 652.34L131.672 655.239L129.171 658.962L126.67 659.005L126.784 660.966L125.149 661.989L123.515 661.449L123.984 662.401L121.085 665.001L117.76 665.172L120.276 669.435L117.903 668.369L116.027 672.333L117.76 673.413L113.426 676.269L112.304 672.404L115.743 669.023L114.535 665.129L117.306 664.177ZM167.153 604.312L165.59 606.344L163.345 606.657L163.487 609.328L160.801 611.232L161.1 612.667L158.769 611.346L158.173 609.399L154.279 608.035L156.837 607.395L156.553 606.486L160.02 604.383L164.681 603.388L165.704 601.371L167.906 600.93L168.332 602.905L169.356 601.484L168.546 600.163L169.81 599.282L170.549 602.465L167.153 604.312ZM8.80108 729.058L7.08172 732.241L1 730.635L2.1794 729.342L3.30196 730.238L4.21137 726.628L8.80108 729.058ZM149.704 620.539L151.594 623.509L150.215 626.422L148.752 626.692L147.16 624.745L147.117 621.236L147.714 619.36L149.76 619.417L149.704 620.539ZM15.238 726.273L16.7443 726.088L20.0409 721.499L17.54 725.875L17.27 729.428L14.8686 729.953L13.6466 728.888L14.5276 727.41L12.4387 726.87L13.8171 725.264L15.238 726.273ZM45.5614 716.866L46.4566 716.994L45.945 711.978L47.9202 715.602L51.2026 717.676L47.1386 718.259L45.5614 716.866ZM140.112 636.028L138.137 637.136L137.128 635.26L142.414 633.669L140.112 636.028ZM156.709 611.005L157.689 610.522L160.162 612.298L160.062 613.591H156.538L155.402 610.081L156.382 609.669L156.709 611.005ZM88.0481 668.44L86.3998 667.019L88.4602 666.479L89.5827 667.786L89.2417 669.491L88.0481 668.44ZM179.487 604.383L177.782 607.04L176.247 606.827L176.318 605.79L179.487 604.383ZM42.3784 714.991L43.1173 713.527L44.7372 715.09L42.3784 714.991ZM121.114 646.074L123.103 644.497L120.176 647.737L121.114 646.074ZM117.363 655.722L117.704 656.49L115.501 656.205L117.363 655.722ZM120.773 648.802L120.844 650.209L120.048 649.371L120.773 648.802Z" fill="#CCE7FF" fill-opacity="0.3" stroke="#F1F5F8" stroke-opacity="0.5" stroke-width="0.5"/>
<path d="M330.421 403.132L330.834 398.983L331.601 397.263L330.407 390.23L331.7 389.505L328.333 388.155L327.992 385.924L329.015 385.541L329.285 386.592L332.354 387.445L333.789 389.974L334.912 389.605L334.741 388.041L335.807 388.07L339.459 393.725L339.047 394.606L336.873 400.432L337.768 405.889L336.617 407.978L322.308 411.729L321.128 410.294L324.78 409.086L330.421 403.132Z" fill="#FFBDBD" fill-opacity="0.3" stroke="#F1F5F8" stroke-opacity="0.5" stroke-width="0.5"/>
<path d="M291.388 401.612L289.384 403.161L288.716 405.605L282.564 404.823L281.683 403.715L276.198 405.96L275.217 404.766L273.327 399.949L273.171 393.683L270.897 390.841L271.565 386.862L270.13 385.129L270.968 383.58L274.08 382.997L273.995 380.766L276.809 380.539L279.281 375.338L283.501 376.248L285.761 378.592L290.805 375.111L290.862 376.617L294.301 377.512L295.608 381.306L301.874 378.876L302.045 382.059L300.738 382.329L298.166 386.322L297.739 388.908L298.706 390.116L297.711 391.978L300.269 395.971L298.322 396.027L295.295 400.106L291.388 401.612ZM298.862 405.647L299.317 404.724L297.143 406.841L297.171 404.965L294.5 404.908L295.139 403.686L300.368 401.768L300.056 406.116L298.862 405.647Z" fill="#CCE7FF" fill-opacity="0.3" stroke="#F1F5F8" stroke-opacity="0.5" stroke-width="0.5"/>
<path d="M202.208 450.805L203.388 448.489L201.725 446.315L202.833 444.482L202.009 442.905L203.8 439.395L206.087 437.434L211.501 437.335L211.658 434.28L218.293 435.132L220.539 431.85L222.926 431.139L226.976 434.663L227.231 438.741L226.222 440.688L224.276 440.12L224.56 441.768L222.968 442.748L220.581 442.208L220.411 443.217L220.908 445.349L223.04 446.073L225.711 444.923L227.615 446.287L231.821 445.335L229.178 450.01L231.707 449.754L230.627 451.587L232.034 451.999L232.873 451.033L233.711 452.226L234.606 451.061L234.706 452.198L232.532 452.539L231.636 454.898L236.908 456.446L233.91 456.83L235.018 457.896L233.867 458.976L234.805 459.97L232.773 461.42L231.466 460.752L231.111 462.926L230.315 462.912L230.684 460.695L228.354 459.814L226.308 461.903L222.4 462.5L219.928 459.772L217.057 460.766L215.821 459.928L213.832 458.123L212.695 452.61L209.725 448.29L206.272 448.731L207.281 451.502L206.329 453.605L202.208 450.805Z" fill="#CCE7FF" fill-opacity="0.3" stroke="#F1F5F8" stroke-opacity="0.5" stroke-width="0.5"/>
<path d="M173.05 443.288L174.002 444.652L174.912 441.1L172.425 439.196L173.107 438.045L174.542 439.082L174.173 435.672L176.532 435.871L177.597 439.068L179.544 438.642L186.166 438.343L190.556 441.114L193.597 439.722L193.569 442.919L189.491 446.116L188.411 449.342L186.549 449.327L185.015 447.779L182.201 450.763L184.205 455.736L180.226 454.77L176.389 451.331L176.844 448.844L173.42 448.162L171.885 444.425L172.723 443.018L173.05 443.288ZM170.762 430.528L168.517 428.581L170.237 425.413L172.183 426.123L171.757 428.368L172.865 428.752L170.762 430.528ZM171.103 439.977L171.629 438.556L172.738 439.906L171.061 440.745L171.103 439.977Z" fill="#CCE7FF" fill-opacity="0.3" stroke="#F1F5F8" stroke-opacity="0.5" stroke-width="0.5"/>
<path d="M358.258 379.658L359.367 381.903L356.866 390.287L353.541 391.892L349.733 390.429L349.164 393.398L347.26 394.18L344.93 390.883L342.884 390.755L341.548 385.427L342.401 377.555L340.127 374.954L341.377 373.05L343.608 373.221L345.086 369.299L346.834 370.251L349.818 367.31L351.381 367.764L350.841 363.246L354.365 364.382L355.672 366.002L355.502 368.276L357.832 368.986L359.012 373.789L357.235 378.677L358.258 379.658Z" fill="#CCE7FF" fill-opacity="0.3" stroke="#F1F5F8" stroke-opacity="0.5" stroke-width="0.5"/>
<path d="M243.203 385.058L246.187 380.709L252.581 376.66L253.348 373.264L252.112 372.184L261.746 369.356L261.647 368.432L263.309 368.603L265.214 366.329L266.507 367.836L271.693 367.58L269.391 368.731L271.707 371.104L271.267 377.768L266.862 379.729L268.07 381.306L266.578 384.489L259.032 383.622L255.622 388.354L252.723 390.145L254.258 392.347L249.668 394.052L246.997 393.285L242.99 394.663L241.299 393.825L238.372 397.349L239.153 397.832L237.86 401.811L235.7 403.928L236.396 404.823L234.563 406.472L234.961 408.191L233.37 410.436L232.389 409.541L229.562 410.663L228.084 408.361L228.865 406.173L226.208 406.23L225.341 403.885L226.919 401.583L225.739 397.974L229.519 397.377L236.951 389.321L243.203 385.058ZM268.922 346.223L267.686 345.427L267.601 342.798L270.372 340.951L273.327 343.495L272.901 345.626L271.11 345.868L271.736 346.976L268.922 346.223ZM203.53 299.061L204.112 300.937L203.032 302.187L201.199 301.42L200.716 300.056L203.53 299.061ZM264.716 347.814L263.793 350.67L262.13 349.519L262.471 351.423L261.007 350.514L262.869 348.027L264.716 347.814ZM266.336 349.775L264.46 351.566L264.333 349.249L265.682 348.582L266.336 349.775ZM262.656 351.608L264.389 352.859L262.713 352.631L262.656 351.608Z" fill="#CCE7FF" fill-opacity="0.3" stroke="#F1F5F8" stroke-opacity="0.5" stroke-width="0.5"/>
<path d="M423.04 355.97L422.728 353.086L429.662 348.51L431.836 348.411L434.209 343.21L441.058 344.404L443.63 346.308H447.978L449.115 345.228L450.308 345.811L451.289 349.86L452.397 349.505L455.864 357.548L455.054 359.821L452.127 359.125L448.063 360.873L445.989 360.986L445.591 359.75L441.555 360.859L439.111 358.557L431.31 356.383L429.079 357.832L427.53 358.244L423.04 355.97Z" fill="#CCE7FF" fill-opacity="0.3" stroke="#F1F5F8" stroke-opacity="0.5" stroke-width="0.5"/>
<path d="M433.74 391.366L430.472 395.729L430.202 398.599L425.683 400.347L423.239 397.491L424.305 395.303L423.722 390.94L424.674 390.073L423.907 387.899L424.603 386.152L427.516 386.379L427.9 385.37L425.37 383.111L422.074 382.386L418.18 383.551L417.157 387.345L412.795 389.704L411.914 393.029L408.006 398.358L408.958 400.702L402.607 398.457L388.227 398.031L388.61 392.986L392.518 390.798L397.818 381.889L397.534 379.786L406.614 374.443L406.628 368.12L408.759 365.064L410.095 369.583L409.697 375.949L412.823 376.446L414.784 380.979L417.569 380.255L417.001 376.475L417.541 373.178L418.948 371.885L421.861 374.883L428.312 373.377L430.671 373.675L430.301 380.255L431.481 381.988L433.64 382.287L432.49 385.1L434.664 388.525L433.74 391.366Z" fill="#CCE7FF" fill-opacity="0.3" stroke="#F1F5F8" stroke-opacity="0.5" stroke-width="0.5"/>
<path d="M465.868 320.361L466.692 327.864L464.816 329.157L465.655 334.5L464.049 338.805L457.854 339.928L456.078 342.486L454.472 342.088L453.676 344.489L450.308 345.811L449.115 345.228L447.978 343.367L443.957 343.424L440.944 340.113L444.156 332.837L439.836 330.919L440.532 326.045L441.982 324.042L440.532 323.416L441.356 321.228L455.808 312.788L462.642 314.606L464.419 317.32L465.626 317.249L465.868 320.361Z" fill="#CCE7FF" fill-opacity="0.3" stroke="#F1F5F8" stroke-opacity="0.5" stroke-width="0.5"/>
<path d="M441.569 397.633L440.404 396.496L440.66 393.81L443.132 395.729L442.905 397.86L441.569 397.633ZM438.571 406.372L438.102 409.626L437.321 408.318L438.571 406.372ZM454.06 365.32L452.624 363.913L451.914 364.539L451.488 366.755L452.937 368.631L450.394 368.759L449.243 366.94L445.434 365.135L443.346 366.087L444.468 366.968L443.772 369.881L441.854 367.196L437.534 366.414L434.308 364.084L431.324 362.436L429.079 357.832L431.31 356.382L439.111 358.556L441.555 360.858L445.591 359.75L445.989 360.986L448.063 360.873L452.127 359.125L455.054 359.821L457.086 364.112L455.68 365.917L454.06 365.32ZM446.415 417.37L444.354 416.773L444.042 419.089L446.06 418.777L446.415 417.37ZM453.861 452.752L454.273 450.322L451.559 448.986L452.482 451.914L453.861 452.752ZM453.861 452.752L454.273 450.322L451.559 448.986L452.482 451.914L453.861 452.752Z" fill="#CCE7FF" fill-opacity="0.3" stroke="#F1F5F8" stroke-opacity="0.5" stroke-width="0.5"/>
<path d="M310.883 426.749L301.633 432.361L299.089 435.971L296.091 435.658L295.196 431.395L292.397 431.324L291.53 426.692L289.612 426.464L288.148 427.899L286.116 426.166L283.544 426.407L281.114 424.901L281.938 420.482L286.755 417.384L288.716 417.029L290.606 418.407L295.466 415.011L302.144 415.523L302.969 413.846L306.962 412.724L308.027 414.741L307.132 420.511L307.814 421.264L308.326 420.468L310.315 423.324L308.155 425.782L311.352 426.138L310.883 426.749Z" fill="#CCE7FF" fill-opacity="0.3" stroke="#F1F5F8" stroke-opacity="0.5" stroke-width="0.5"/>
<path d="M271.693 371.104L273.768 371.516L279.054 368.816L283.658 369.882L294.017 368.986L300.88 366.031L304.887 375.352L305.043 377.612L301.889 378.876L295.622 381.306L294.315 377.512L290.876 376.617L290.819 375.111L285.775 378.592L283.516 376.247L279.295 375.338L276.823 380.539L274.009 380.766L274.095 382.997L270.983 383.58L270.144 385.128L266.549 384.489L268.041 381.306L266.834 379.729L271.238 377.768L271.693 371.104Z" fill="#CCE7FF" fill-opacity="0.3" stroke="#F1F5F8" stroke-opacity="0.5" stroke-width="0.5"/>
<path d="M377.881 325.562L383.892 326.329L385.555 324.752L386.549 320.589L392.404 318.727L394.564 320.233L395.999 326.272L395.715 332.212L394.038 333.207L394.35 334.94L391.082 339.374L385.938 338.095L385.54 336.986L383.622 338.123L383.267 336.816L379.217 337.128L373.931 343.367L373.334 341.121L371.175 340.07L368.844 342.486L369.512 333.747L368.588 331.317L371.217 321.654L373.207 319.707L376.006 319.48L374.116 322.734L377.881 325.562Z" fill="#CCE7FF" fill-opacity="0.3" stroke="#F1F5F8" stroke-opacity="0.5" stroke-width="0.5"/>
<path d="M341.661 437.079L339.899 439.736L339.999 438.173L332.851 436.724L327.821 431.935L329.555 430.386L323.786 426.933L322.819 424.93L320.162 424.844L320.461 421.534L323.388 419.715L320.745 418.28L322.038 416.191L323.7 415.793L320.418 411.189L321.114 410.294L322.294 411.729L336.603 407.978L339.018 413.036L336.546 413.732L333.903 417.626L336.489 421.519L335.48 424.12L336.318 425.129L342.684 424.262L342.585 426.99L345.001 429.747L346.834 430.13L346.151 432.404L344.787 432.773L345.398 434.876L341.661 437.079Z" fill="#CCE7FF" fill-opacity="0.3" stroke="#F1F5F8" stroke-opacity="0.5" stroke-width="0.5"/>
<path d="M220.808 420.013L219.97 419.431L218.421 421.178L217.583 419.871L214.045 423.395L210.947 422.287L211.061 421.164L207.849 419.345L203.785 423.665L204.126 419.203L202.62 417.043L204.652 414.415L202.791 411.033L203.771 408.859L207.522 408.276L205.348 407.054L205.746 405.889L209.327 406.67L210.876 408.248L217.412 406.741L223.281 398.599L225.682 397.974L226.862 401.583L225.284 403.885L226.151 406.23L228.808 406.173L228.027 408.361L229.505 410.663L232.332 409.541L233.313 410.436L234.904 408.191L234.506 406.471L236.34 404.823L238.769 412.951L241.057 413.122L240.46 420.71L238.102 422.244L238.471 426.408L237.775 424.887L230.087 420.155L229.377 421.789L228.084 421.505L229.675 419.829L227.899 418.82L221.59 420.866L220.808 420.013ZM242.322 425.157L240.304 425.598L239.395 423.239L241.071 421.889L243.004 423.495L247.736 422.471L244.936 423.821L244.951 425.441L242.933 424.276L242.322 425.157Z" fill="#CCE7FF" fill-opacity="0.3" stroke="#F1F5F8" stroke-opacity="0.5" stroke-width="0.5"/>
<path d="M434.294 364.084L433.783 368.788L428.88 371.772L428.312 373.377L421.861 374.884L418.948 371.885L417.541 373.178L417.001 376.475L417.569 380.255L414.784 380.98L412.823 376.447L409.697 375.949L410.095 369.583L408.759 365.065L407.722 362.55L409.143 360.987L407.893 359.765L409.271 356.965L410.578 357.676L413.093 353.825L415.125 354.649L415.793 356.354L419.289 355.686L420.056 357.306L423.04 355.971L427.53 358.244L429.079 357.832L431.31 362.436L434.294 364.084Z" fill="#CCE7FF" fill-opacity="0.3" stroke="#F1F5F8" stroke-opacity="0.5" stroke-width="0.5"/>
<path d="M466.493 283.828L466.905 289.683L465.015 291.97L462.116 292.397L460.027 290.805L458.28 291.459L456.901 289.072L453.335 289.953L451.317 289.256L448.191 286.258L450.01 281.029L449.768 276.936L450.507 275.771L452.752 276.084L454.699 274.862L455.821 272.603L451.573 270.173L450.436 268.567L450.649 265.313L445.974 263.494L447.637 259.118L451.729 254.841L454.94 243.004L458.507 243.587L460.425 242.578L460.709 244.24L462.855 245.505L470.784 247.679L471.608 250.237L474.123 251.629L476.752 255.722L475.488 260.297L473.853 260.254L475.729 266.734L472.035 273.37L472.134 276.553L470.301 280.247L466.45 281.043L466.493 283.828Z" fill="#CCE7FF" fill-opacity="0.3" stroke="#F1F5F8" stroke-opacity="0.5" stroke-width="0.5"/>
</svg>
